<?xml version="1.0" standalone="no"?>
<!DOCTYPE svg PUBLIC "-//W3C//DTD SVG 20010904//EN"
 "http://www.w3.org/TR/2001/REC-SVG-20010904/DTD/svg10.dtd">
<svg version="1.0" xmlns="http://www.w3.org/2000/svg"
 width="1280.000000pt" height="907.000000pt" viewBox="0 0 1280.000000 907.000000"
 preserveAspectRatio="xMidYMid meet">
<metadata>
Created by potrace 1.15, written by Peter Selinger 2001-2017
</metadata>
<g transform="translate(0.000000,907.000000) scale(0.100000,-0.100000)"
fill="#2196f3" stroke="none">
<path d="M1801 9059 c-438 -46 -884 -262 -1206 -584 -305 -304 -507 -703 -574
-1130 -28 -181 -26 -465 5 -650 94 -559 411 -1048 881 -1361 178 -119 362
-204 565 -263 145 -41 249 -60 421 -73 l149 -11 1020 1020 1021 1021 -12 154
c-10 130 -21 209 -45 313 -117 524 -478 1018 -943 1292 -383 225 -827 319
-1282 272z"/>
<path d="M3729 6087 c-256 -248 -613 -594 -793 -767 -179 -173 -326 -319 -326
-325 0 -5 104 -102 231 -215 127 -113 365 -324 529 -470 163 -146 452 -402
640 -570 189 -168 495 -440 680 -605 185 -165 491 -437 680 -605 188 -168 477
-424 640 -570 164 -146 470 -418 680 -605 210 -187 514 -457 674 -600 160
-143 318 -283 351 -311 l60 -52 240 256 c132 140 327 347 433 459 105 112 192
208 192 213 0 5 -19 31 -42 58 -24 27 -137 161 -253 297 -115 136 -307 361
-425 500 -118 139 -309 364 -425 500 -115 136 -293 345 -395 465 -102 119
-282 331 -400 470 -118 140 -309 365 -425 500 -245 288 -563 663 -825 971
-249 293 -624 734 -850 999 -102 120 -231 272 -288 339 -56 66 -106 121 -110
121 -4 0 -217 -204 -473 -453z"/>
<path d="M11274 1054 c-108 -14 -295 -67 -407 -114 -125 -52 -252 -130 -403
-246 -207 -160 -294 -211 -452 -264 -206 -69 -428 -86 -633 -50 -255 46 -478
155 -650 318 l-69 64 -130 -123 -130 -124 85 -82 c313 -303 802 -467 1258
-424 343 33 610 140 889 358 160 124 216 162 313 210 301 151 670 174 993 61
200 -69 351 -166 504 -322 l83 -84 135 109 c74 60 136 113 138 118 5 15 -199
214 -292 283 -349 261 -790 372 -1232 312z"/>
</g>
</svg>
