<?xml version="1.0" encoding="UTF-8"?>
<svg xmlns="http://www.w3.org/2000/svg" xmlns:xlink="http://www.w3.org/1999/xlink" width="28px" height="20px" viewBox="0 0 28 20" version="1.1">
<g id="surface1">
<path style=" stroke:none;fill-rule:nonzero;fill:rgb(12.941176%,58.823529%,95.294118%);fill-opacity:1;" d="M 3.941406 0.0234375 C 2.980469 0.125 2.007812 0.601562 1.300781 1.3125 C 0.632812 1.980469 0.191406 2.863281 0.046875 3.804688 C -0.015625 4.203125 -0.0117188 4.828125 0.0585938 5.234375 C 0.261719 6.46875 0.957031 7.546875 1.984375 8.238281 C 2.375 8.5 2.777344 8.6875 3.21875 8.816406 C 3.539062 8.90625 3.765625 8.949219 4.140625 8.976562 L 4.46875 9 L 6.699219 6.753906 L 8.929688 4.5 L 8.90625 4.164062 C 8.882812 3.875 8.859375 3.703125 8.808594 3.472656 C 8.550781 2.316406 7.761719 1.226562 6.742188 0.625 C 5.90625 0.128906 4.933594 -0.078125 3.941406 0.0234375 Z M 3.941406 0.0234375 "/>
<path style=" stroke:none;fill-rule:nonzero;fill:rgb(12.941176%,58.823529%,95.294118%);fill-opacity:1;" d="M 8.15625 6.578125 C 7.597656 7.121094 6.816406 7.886719 6.421875 8.265625 C 6.03125 8.648438 5.710938 8.96875 5.710938 8.984375 C 5.710938 8.996094 5.9375 9.207031 6.214844 9.457031 C 6.492188 9.707031 7.011719 10.171875 7.371094 10.492188 C 7.726562 10.816406 8.359375 11.378906 8.773438 11.75 C 9.183594 12.121094 9.855469 12.71875 10.257812 13.085938 C 10.664062 13.449219 11.332031 14.046875 11.746094 14.417969 C 12.15625 14.789062 12.789062 15.351562 13.148438 15.675781 C 13.503906 15.996094 14.175781 16.597656 14.632812 17.007812 C 15.09375 17.421875 15.757812 18.015625 16.109375 18.332031 C 16.457031 18.644531 16.804688 18.953125 16.875 19.015625 L 17.007812 19.132812 L 17.53125 18.566406 C 17.820312 18.257812 18.25 17.800781 18.480469 17.554688 C 18.710938 17.308594 18.898438 17.097656 18.898438 17.085938 C 18.898438 17.074219 18.859375 17.015625 18.808594 16.957031 C 18.753906 16.898438 18.507812 16.601562 18.253906 16.304688 C 18.003906 16.003906 17.582031 15.507812 17.324219 15.199219 C 17.066406 14.894531 16.648438 14.398438 16.394531 14.097656 C 16.144531 13.796875 15.753906 13.335938 15.53125 13.074219 C 15.308594 12.8125 14.914062 12.34375 14.65625 12.035156 C 14.398438 11.726562 13.980469 11.230469 13.726562 10.933594 C 13.191406 10.300781 12.496094 9.472656 11.921875 8.792969 C 11.378906 8.148438 10.558594 7.175781 10.0625 6.589844 C 9.839844 6.328125 9.558594 5.992188 9.433594 5.84375 C 9.308594 5.699219 9.199219 5.578125 9.191406 5.578125 C 9.183594 5.578125 8.71875 6.027344 8.15625 6.578125 Z M 8.15625 6.578125 "/>
<path style=" stroke:none;fill-rule:nonzero;fill:rgb(12.941176%,58.823529%,95.294118%);fill-opacity:1;" d="M 24.660156 17.671875 C 24.425781 17.703125 24.015625 17.820312 23.773438 17.921875 C 23.5 18.039062 23.21875 18.210938 22.890625 18.464844 C 22.4375 18.816406 22.246094 18.929688 21.902344 19.046875 C 21.449219 19.199219 20.964844 19.238281 20.515625 19.15625 C 19.957031 19.054688 19.472656 18.816406 19.09375 18.457031 L 18.945312 18.316406 L 18.660156 18.585938 L 18.375 18.859375 L 18.5625 19.039062 C 19.246094 19.710938 20.316406 20.070312 21.3125 19.976562 C 22.0625 19.902344 22.648438 19.667969 23.257812 19.1875 C 23.609375 18.914062 23.730469 18.828125 23.941406 18.722656 C 24.601562 18.390625 25.40625 18.339844 26.113281 18.589844 C 26.550781 18.742188 26.882812 18.953125 27.21875 19.300781 L 27.398438 19.484375 L 27.695312 19.242188 C 27.855469 19.113281 27.992188 18.996094 27.996094 18.984375 C 28.007812 18.949219 27.558594 18.511719 27.355469 18.359375 C 26.59375 17.785156 25.628906 17.539062 24.660156 17.671875 Z M 24.660156 17.671875 "/>
</g>
</svg>
