<?xml version="1.0" encoding="UTF-8"?>
<svg xmlns="http://www.w3.org/2000/svg" xmlns:xlink="http://www.w3.org/1999/xlink" width="14px" height="28px" viewBox="0 0 14 28" version="1.1">
<g id="surface1">
<path style=" stroke:none;fill-rule:nonzero;fill:rgb(12.941176%,58.823529%,95.294118%);fill-opacity:1;" d="M 7.183594 0.0703125 C 7.222656 0.25 7.21875 0.304688 7.175781 0.316406 C 7.128906 0.332031 6.949219 0.25 6.828125 0.160156 C 6.789062 0.128906 6.75 0.113281 6.742188 0.117188 C 6.734375 0.125 6.742188 0.183594 6.753906 0.246094 C 6.796875 0.433594 6.800781 0.425781 6.714844 0.425781 C 6.675781 0.425781 6.558594 0.414062 6.460938 0.40625 C 6.292969 0.390625 6.03125 0.410156 6.101562 0.433594 C 6.433594 0.542969 6.5 0.574219 6.46875 0.605469 C 6.445312 0.628906 6.402344 0.625 6.1875 0.570312 C 6.050781 0.535156 5.917969 0.5 5.898438 0.488281 C 5.84375 0.46875 6.003906 0.707031 6.121094 0.824219 L 6.203125 0.902344 L 6.023438 0.890625 C 5.921875 0.886719 5.839844 0.886719 5.839844 0.890625 C 5.839844 0.945312 6 1.160156 6.039062 1.160156 C 6.050781 1.160156 6.058594 1.167969 6.058594 1.179688 C 6.058594 1.191406 6.03125 1.203125 6.003906 1.203125 C 5.957031 1.203125 5.9375 1.222656 5.902344 1.300781 C 5.875 1.371094 5.839844 1.410156 5.789062 1.429688 L 5.71875 1.457031 L 5.789062 1.527344 C 5.839844 1.574219 5.878906 1.597656 5.925781 1.597656 C 6.003906 1.597656 6.003906 1.59375 5.957031 1.742188 C 5.921875 1.851562 5.929688 1.941406 5.972656 1.914062 C 5.984375 1.90625 5.992188 1.9375 5.992188 1.996094 C 5.992188 2.089844 5.992188 2.089844 5.890625 2.121094 C 5.75 2.164062 5.722656 2.226562 5.726562 2.472656 C 5.726562 2.738281 5.859375 3.132812 5.996094 3.277344 C 6.039062 3.324219 6.058594 3.328125 6.136719 3.316406 L 6.230469 3.304688 L 6.28125 3.429688 C 6.347656 3.601562 6.355469 3.71875 6.3125 3.800781 C 6.25 3.921875 5.820312 4.222656 5.425781 4.417969 C 4.980469 4.640625 4.824219 4.75 4.660156 4.953125 C 4.378906 5.3125 4.269531 5.542969 4.175781 6.003906 C 4.097656 6.375 4.140625 6.617188 4.351562 7.058594 C 4.550781 7.46875 4.710938 7.691406 4.945312 7.878906 L 5.144531 8.039062 L 5.132812 8.125 C 5.125 8.175781 5.113281 8.433594 5.101562 8.703125 L 5.089844 9.191406 L 5.003906 9.265625 C 4.960938 9.308594 4.910156 9.363281 4.902344 9.390625 C 4.890625 9.417969 4.875 9.578125 4.867188 9.75 C 4.855469 10.007812 4.855469 10.070312 4.882812 10.113281 C 4.914062 10.15625 4.90625 10.207031 4.832031 10.632812 C 4.785156 10.890625 4.714844 11.195312 4.679688 11.308594 C 4.53125 11.753906 4.363281 12.027344 4.238281 12.03125 C 4.1875 12.03125 4.167969 12.046875 4.148438 12.101562 C 4.078125 12.265625 4.082031 12.304688 4.167969 12.394531 L 4.25 12.480469 L 4.234375 12.636719 C 4.222656 12.726562 4.207031 12.84375 4.191406 12.898438 C 4.160156 13.019531 3.910156 13.4375 3.789062 13.570312 C 3.75 13.621094 3.660156 13.742188 3.597656 13.84375 C 3.503906 13.992188 3.484375 14.039062 3.503906 14.066406 C 3.550781 14.164062 3.734375 14.136719 3.898438 14.015625 L 3.992188 13.941406 L 3.976562 14.214844 C 3.96875 14.371094 3.945312 14.578125 3.925781 14.683594 C 3.890625 14.867188 3.890625 14.878906 3.925781 14.917969 C 3.980469 14.976562 4.03125 14.972656 4.085938 14.914062 C 4.167969 14.820312 4.234375 14.628906 4.242188 14.425781 C 4.246094 14.414062 4.265625 14.449219 4.289062 14.507812 L 4.332031 14.613281 L 4.167969 14.902344 C 4.078125 15.0625 3.957031 15.300781 3.902344 15.429688 C 3.792969 15.6875 3.421875 16.65625 3.28125 17.046875 C 3.234375 17.175781 3.140625 17.398438 3.078125 17.546875 C 2.917969 17.90625 2.875 18.046875 2.84375 18.292969 C 2.8125 18.550781 2.835938 18.746094 2.929688 18.933594 C 3 19.078125 3.421875 19.550781 3.761719 19.859375 C 4.011719 20.085938 5.53125 21.261719 5.75 21.390625 C 5.835938 21.445312 5.914062 21.496094 5.917969 21.503906 C 5.929688 21.523438 5.800781 21.640625 5.683594 21.707031 C 5.5625 21.777344 5.386719 21.824219 5.074219 21.863281 C 4.511719 21.9375 4.414062 21.992188 4.382812 22.242188 C 4.363281 22.414062 4.40625 22.578125 4.5 22.664062 C 4.636719 22.789062 4.640625 22.792969 5 22.847656 C 5.429688 22.917969 5.847656 22.941406 6.027344 22.90625 C 6.097656 22.890625 6.265625 22.859375 6.402344 22.835938 C 6.683594 22.789062 6.894531 22.726562 6.996094 22.664062 C 7.039062 22.636719 7.070312 22.617188 7.078125 22.625 C 7.105469 22.660156 7.132812 22.882812 7.132812 23.085938 C 7.132812 23.503906 7.050781 23.839844 6.914062 24.011719 C 6.867188 24.066406 6.824219 24.132812 6.820312 24.164062 C 6.796875 24.269531 6.847656 24.429688 6.992188 24.726562 C 7.070312 24.894531 7.136719 25.054688 7.136719 25.089844 C 7.136719 25.117188 7.078125 25.4375 7.011719 25.789062 C 6.914062 26.308594 6.878906 26.460938 6.824219 26.554688 C 6.738281 26.722656 6.59375 27.101562 6.558594 27.246094 C 6.511719 27.460938 6.597656 27.738281 6.75 27.863281 C 6.875 27.96875 6.988281 27.988281 7.382812 27.988281 C 7.777344 27.988281 7.902344 27.960938 8.078125 27.847656 C 8.277344 27.714844 8.558594 27.332031 8.628906 27.09375 C 8.648438 27.035156 8.71875 26.679688 8.78125 26.308594 C 8.972656 25.253906 8.941406 25.351562 9.15625 25.066406 C 9.257812 24.929688 9.367188 24.773438 9.394531 24.71875 C 9.554688 24.402344 9.574219 23.949219 9.4375 23.71875 C 9.371094 23.609375 9.214844 23.5 9.09375 23.476562 C 9.023438 23.46875 9.011719 23.457031 8.992188 23.386719 C 8.980469 23.34375 8.921875 23.089844 8.859375 22.828125 C 8.371094 20.753906 8.378906 20.789062 8.070312 19.964844 L 7.785156 19.207031 L 8.101562 18.457031 C 8.578125 17.332031 8.480469 17.617188 9.019531 15.761719 C 9.085938 15.53125 9.191406 15.234375 9.25 15.101562 C 9.5 14.542969 9.621094 14.15625 9.675781 13.785156 L 9.703125 13.597656 L 9.886719 13.59375 C 10.199219 13.589844 10.449219 13.503906 10.605469 13.359375 C 10.722656 13.246094 10.746094 13.179688 10.734375 13.023438 C 10.714844 12.839844 10.601562 12.621094 10.359375 12.296875 L 10.171875 12.054688 L 10.453125 11.460938 L 10.519531 11.496094 C 10.558594 11.511719 10.621094 11.527344 10.667969 11.527344 C 10.78125 11.527344 10.960938 11.425781 11 11.34375 C 11.019531 11.308594 11.039062 11.160156 11.050781 10.996094 C 11.058594 10.835938 11.085938 10.605469 11.109375 10.484375 C 11.136719 10.359375 11.15625 10.21875 11.15625 10.175781 C 11.15625 10.070312 11.085938 9.898438 11.003906 9.8125 L 10.941406 9.746094 L 10.929688 8.390625 C 10.917969 7.425781 10.921875 6.972656 10.9375 6.828125 C 10.957031 6.675781 10.957031 6.589844 10.9375 6.480469 C 10.910156 6.328125 10.726562 5.820312 10.585938 5.519531 C 10.507812 5.347656 10.503906 5.34375 10.257812 5.15625 C 9.71875 4.753906 9.5 4.625 9.140625 4.496094 L 8.96875 4.4375 L 8.890625 4.277344 C 8.847656 4.1875 8.742188 4.03125 8.65625 3.925781 L 8.503906 3.730469 L 8.542969 3.585938 C 8.5625 3.507812 8.585938 3.417969 8.589844 3.386719 C 8.601562 3.324219 8.660156 3.304688 8.820312 3.304688 C 8.867188 3.304688 8.925781 3.292969 8.949219 3.28125 C 9.050781 3.226562 9.160156 2.859375 9.179688 2.503906 C 9.195312 2.238281 9.183594 2.183594 9.109375 2.144531 L 9.054688 2.117188 L 9.054688 1.785156 C 9.054688 1.261719 9.015625 1.097656 8.824219 0.847656 C 8.71875 0.710938 8.527344 0.554688 8.351562 0.46875 C 8.234375 0.40625 7.902344 0.316406 7.722656 0.296875 C 7.585938 0.277344 7.425781 0.203125 7.289062 0.0976562 C 7.183594 0.0078125 7.171875 0.0078125 7.183594 0.0703125 Z M 8.089844 0.515625 C 8.097656 0.519531 8.097656 0.53125 8.089844 0.539062 C 8.082031 0.542969 8.046875 0.535156 8.011719 0.515625 L 7.953125 0.480469 L 8.015625 0.496094 C 8.054688 0.503906 8.085938 0.511719 8.089844 0.515625 Z M 8.550781 3.335938 C 8.5625 3.347656 8.460938 3.675781 8.441406 3.675781 C 8.433594 3.675781 8.417969 3.667969 8.410156 3.65625 C 8.40625 3.644531 8.371094 3.628906 8.335938 3.621094 C 8.296875 3.613281 8.269531 3.597656 8.269531 3.59375 C 8.269531 3.582031 8.296875 3.515625 8.328125 3.4375 L 8.390625 3.300781 L 8.464844 3.3125 C 8.507812 3.324219 8.546875 3.332031 8.550781 3.335938 Z M 6.625 4 C 6.648438 4.035156 6.671875 4.070312 6.671875 4.074219 C 6.671875 4.078125 6.59375 4.148438 6.496094 4.222656 C 6.378906 4.3125 6.226562 4.398438 6.0625 4.472656 C 5.792969 4.597656 5.492188 4.703125 5.421875 4.703125 C 5.34375 4.703125 5.402344 4.742188 5.5 4.757812 C 5.640625 4.777344 5.804688 4.820312 5.960938 4.878906 L 6.089844 4.929688 L 5.949219 5 C 5.808594 5.074219 5.476562 5.34375 5.398438 5.445312 C 5.375 5.480469 5.328125 5.585938 5.292969 5.6875 L 5.234375 5.875 L 5.003906 5.988281 C 4.839844 6.066406 4.742188 6.136719 4.644531 6.230469 C 4.492188 6.378906 4.335938 6.625 4.316406 6.75 L 4.304688 6.832031 L 4.257812 6.714844 C 4.230469 6.632812 4.214844 6.515625 4.207031 6.355469 C 4.199219 6.136719 4.203125 6.085938 4.261719 5.855469 C 4.34375 5.535156 4.421875 5.367188 4.59375 5.128906 C 4.8125 4.828125 4.949219 4.71875 5.40625 4.492188 C 5.816406 4.28125 6.199219 4.027344 6.332031 3.871094 C 6.386719 3.804688 6.390625 3.785156 6.382812 3.65625 L 6.375 3.515625 L 6.476562 3.726562 C 6.53125 3.839844 6.597656 3.960938 6.625 4 Z M 5.199219 6.03125 C 5.152344 6.242188 5.140625 6.484375 5.140625 7.179688 L 5.140625 7.96875 L 5.046875 7.894531 C 4.8125 7.714844 4.667969 7.535156 4.472656 7.1875 C 4.390625 7.042969 4.386719 7.023438 4.386719 6.847656 C 4.386719 6.664062 4.386719 6.660156 4.480469 6.515625 C 4.605469 6.320312 4.796875 6.148438 4.992188 6.054688 C 5.191406 5.957031 5.210938 5.953125 5.199219 6.03125 Z M 9.46875 9.039062 C 9.507812 9.25 9.558594 9.523438 9.589844 9.648438 C 9.640625 9.859375 9.640625 9.875 9.613281 9.992188 C 9.597656 10.058594 9.585938 10.132812 9.59375 10.160156 C 9.601562 10.1875 9.578125 10.257812 9.523438 10.363281 C 9.476562 10.449219 9.433594 10.523438 9.425781 10.523438 C 9.417969 10.523438 9.394531 10.457031 9.371094 10.375 C 9.339844 10.253906 9.332031 10.15625 9.335938 9.867188 C 9.335938 9.667969 9.347656 9.433594 9.359375 9.351562 C 9.375 9.265625 9.382812 9.070312 9.382812 8.917969 C 9.382812 8.761719 9.390625 8.636719 9.394531 8.644531 C 9.398438 8.648438 9.433594 8.828125 9.46875 9.039062 Z M 6.082031 10.59375 C 6.082031 10.808594 6.042969 10.996094 5.945312 11.242188 C 5.835938 11.527344 5.609375 11.996094 5.503906 12.171875 C 5.441406 12.277344 5.425781 12.320312 5.433594 12.375 C 5.441406 12.429688 5.421875 12.5 5.34375 12.660156 C 5.289062 12.773438 5.238281 12.925781 5.226562 12.992188 C 5.203125 13.152344 5.136719 13.328125 5.042969 13.476562 C 4.945312 13.632812 4.9375 13.570312 5.035156 13.292969 C 5.117188 13.042969 5.136719 12.800781 5.089844 12.609375 C 5.015625 12.320312 5.015625 12.320312 5.335938 11.691406 C 5.664062 11.054688 5.945312 10.523438 5.976562 10.484375 C 5.988281 10.46875 6.019531 10.457031 6.039062 10.457031 C 6.078125 10.457031 6.082031 10.472656 6.082031 10.59375 Z M 10.363281 12.390625 C 10.566406 12.664062 10.675781 12.890625 10.679688 13.058594 C 10.6875 13.167969 10.675781 13.191406 10.617188 13.269531 C 10.488281 13.429688 10.203125 13.539062 9.914062 13.539062 C 9.710938 13.539062 9.710938 13.542969 9.710938 13.332031 C 9.710938 13.226562 9.699219 13.113281 9.683594 13.074219 C 9.65625 13.007812 9.65625 12.996094 9.773438 12.796875 C 9.835938 12.683594 9.945312 12.484375 10.015625 12.355469 C 10.113281 12.167969 10.144531 12.125 10.167969 12.144531 C 10.183594 12.160156 10.273438 12.269531 10.363281 12.390625 Z M 4.660156 14.074219 C 4.597656 14.179688 4.582031 14.171875 4.636719 14.0625 C 4.664062 14.011719 4.691406 13.980469 4.695312 13.988281 C 4.703125 13.992188 4.6875 14.03125 4.660156 14.074219 Z M 6.316406 16.324219 C 6.292969 16.40625 6.21875 16.992188 6.191406 17.257812 C 6.175781 17.398438 6.148438 17.714844 6.125 17.96875 C 6.039062 18.871094 5.988281 19.222656 5.929688 19.28125 C 5.917969 19.292969 5.890625 19.285156 5.859375 19.265625 C 5.617188 19.09375 5.488281 18.996094 5.3125 18.839844 C 5.199219 18.742188 5.082031 18.640625 5.046875 18.609375 C 4.992188 18.5625 4.988281 18.554688 5.011719 18.460938 C 5.035156 18.378906 5.027344 18.34375 4.980469 18.203125 C 4.9375 18.074219 4.929688 18.03125 4.949219 17.996094 C 5.007812 17.878906 5.230469 17.585938 5.371094 17.433594 C 5.691406 17.085938 6.109375 16.578125 6.246094 16.367188 C 6.3125 16.265625 6.332031 16.25 6.316406 16.324219 Z M 6.316406 16.324219 "/>
</g>
</svg>
