<?xml version="1.0" standalone="no"?>
<!DOCTYPE svg PUBLIC "-//W3C//DTD SVG 20010904//EN"
 "http://www.w3.org/TR/2001/REC-SVG-20010904/DTD/svg10.dtd">
<svg version="1.0" xmlns="http://www.w3.org/2000/svg"
 width="640.000000pt" height="1280.000000pt" viewBox="0 0 640.000000 1280.000000"
 preserveAspectRatio="xMidYMid meet">
<metadata>
Created by potrace 1.15, written by Peter Selinger 2001-2017
</metadata>
<g transform="translate(0.000000,1280.000000) scale(0.100000,-0.100000)"
fill="#2196f3" stroke="none">
<path d="M3284 12768 c17 -83 16 -107 -3 -113 -22 -7 -104 31 -159 72 -18 14
-36 22 -40 19 -3 -4 0 -30 6 -59 20 -85 21 -82 -18 -81 -19 0 -72 4 -116 9
-77 7 -196 -2 -164 -13 151 -51 181 -65 168 -78 -12 -12 -31 -10 -129 15 -63
16 -123 32 -133 37 -25 10 49 -100 102 -152 l37 -37 -82 5 c-46 3 -83 3 -83 1
0 -26 72 -123 90 -123 6 0 10 -4 10 -10 0 -5 -12 -10 -26 -10 -20 0 -29 -9
-45 -45 -14 -32 -29 -49 -52 -58 l-32 -13 32 -32 c22 -22 41 -32 62 -32 36 0
36 2 15 -66 -17 -51 -14 -91 6 -79 6 4 10 -11 10 -37 0 -43 -1 -43 -48 -58
-63 -20 -76 -48 -75 -160 0 -122 61 -303 124 -369 19 -20 28 -22 65 -17 l43 5
22 -57 c30 -79 35 -132 15 -169 -29 -56 -226 -193 -406 -283 -204 -102 -275
-151 -349 -245 -130 -163 -179 -269 -222 -479 -35 -171 -17 -281 80 -482 91
-189 165 -290 272 -376 l91 -73 -6 -40 c-3 -22 -9 -140 -13 -263 l-6 -223 -39
-35 c-21 -19 -43 -45 -47 -57 -5 -12 -12 -86 -16 -165 -6 -117 -5 -146 7 -165
14 -20 11 -43 -23 -237 -22 -118 -53 -257 -70 -310 -67 -204 -144 -329 -202
-330 -22 0 -31 -7 -41 -32 -31 -75 -30 -93 9 -134 l37 -39 -7 -72 c-4 -40 -12
-94 -19 -120 -14 -54 -128 -246 -183 -307 -19 -23 -59 -79 -89 -125 -42 -67
-51 -88 -43 -102 23 -44 107 -32 181 24 l43 33 -7 -125 c-4 -70 -15 -165 -24
-214 -16 -83 -16 -88 1 -107 24 -26 47 -25 72 3 39 42 68 129 73 222 1 6 10
-11 20 -38 l20 -47 -75 -132 c-41 -73 -96 -182 -121 -242 -50 -118 -220 -560
-284 -738 -22 -59 -64 -162 -93 -230 -73 -164 -93 -228 -107 -340 -15 -118 -3
-207 39 -293 33 -67 226 -282 381 -424 114 -104 809 -640 908 -700 40 -24 75
-47 77 -51 6 -10 -53 -62 -107 -94 -55 -32 -135 -53 -278 -71 -258 -34 -303
-58 -316 -172 -10 -80 10 -154 54 -194 61 -57 63 -58 228 -84 196 -31 387 -42
469 -26 33 7 110 21 172 31 129 23 224 51 272 80 18 12 34 20 36 18 13 -17 25
-119 25 -211 0 -192 -36 -346 -100 -423 -21 -25 -40 -57 -43 -70 -9 -48 14
-121 79 -258 37 -76 67 -150 66 -165 0 -14 -26 -159 -57 -321 -45 -237 -61
-306 -85 -350 -40 -76 -106 -249 -121 -315 -22 -98 17 -226 87 -283 56 -47
109 -57 289 -57 180 0 237 12 317 65 92 61 220 235 253 344 8 27 40 189 70
360 86 482 72 436 171 567 47 62 96 134 109 159 73 144 81 351 19 458 -30 50
-101 100 -156 109 -33 5 -39 10 -47 42 -5 20 -32 135 -61 256 -223 948 -219
932 -360 1308 l-131 347 145 343 c217 513 173 384 420 1232 30 105 78 240 105
301 113 256 170 433 195 603 l12 85 84 1 c142 3 257 41 328 108 54 51 65 82
59 154 -8 83 -60 183 -172 331 l-85 111 65 136 64 136 30 -16 c17 -8 47 -15
68 -15 51 1 134 47 152 84 8 17 17 85 22 160 4 72 17 177 28 234 12 56 21 120
21 141 0 47 -33 126 -70 166 l-28 30 -6 620 c-5 441 -4 647 4 713 9 71 9 110
0 160 -12 70 -96 301 -160 438 -36 79 -39 82 -151 166 -247 184 -347 244 -511
303 l-78 27 -36 73 c-19 40 -67 113 -106 161 l-71 89 18 65 c10 36 20 77 22
91 5 29 32 39 105 39 22 0 48 5 59 10 46 25 96 193 106 356 7 120 2 146 -32
164 l-25 13 0 151 c0 239 -19 314 -106 428 -49 63 -136 134 -217 174 -53 28
-204 69 -287 79 -63 8 -136 42 -197 91 -49 40 -55 41 -49 12z m415 -204 c2 -2
2 -7 -1 -10 -4 -3 -19 2 -35 10 l-28 16 30 -6 c17 -4 32 -8 34 -10z m210
-1289 c6 -6 -42 -155 -50 -155 -4 0 -10 4 -14 9 -3 5 -19 12 -35 16 -17 4 -30
10 -30 13 0 4 12 35 27 70 l28 63 35 -6 c19 -4 37 -8 39 -10z m-881 -303 c12
-16 22 -32 22 -35 0 -2 -36 -33 -81 -67 -53 -41 -122 -81 -198 -115 -123 -56
-261 -105 -293 -105 -35 0 -9 -18 37 -25 63 -9 139 -29 210 -56 l59 -22 -65
-33 c-64 -34 -216 -157 -251 -204 -10 -15 -32 -64 -48 -110 l-28 -85 -104 -52
c-75 -37 -120 -68 -165 -111 -69 -68 -141 -181 -150 -238 l-6 -38 -20 54 c-13
37 -21 92 -24 165 -4 99 -1 122 26 229 37 145 72 222 151 331 100 138 162 187
371 292 188 95 363 212 423 283 26 31 28 39 24 98 l-4 64 46 -95 c26 -52 56
-108 68 -125z m-652 -929 c-20 -96 -26 -208 -26 -526 l0 -359 -42 33 c-108 82
-174 164 -264 324 -37 66 -39 75 -39 155 0 83 1 86 43 152 57 89 145 168 234
211 91 44 101 45 94 10z m1953 -1375 c17 -97 41 -222 55 -278 24 -97 24 -105
11 -158 -8 -31 -12 -65 -9 -76 4 -13 -7 -45 -32 -93 -22 -40 -42 -73 -45 -73
-3 0 -14 30 -25 68 -14 54 -18 99 -17 232 1 91 7 197 12 235 6 39 11 128 11
199 0 71 2 127 5 125 2 -3 18 -84 34 -181z m-1549 -710 c0 -99 -18 -184 -62
-298 -50 -129 -153 -344 -202 -425 -29 -47 -36 -67 -32 -92 3 -25 -6 -57 -41
-130 -25 -53 -49 -122 -53 -153 -11 -72 -41 -152 -85 -220 -45 -72 -47 -43 -4
84 39 114 48 225 26 311 -35 133 -35 133 113 421 149 290 278 533 293 552 5 6
18 12 28 12 17 0 19 -8 19 -62z m1957 -822 c94 -125 144 -229 146 -306 2 -49
-2 -61 -30 -96 -58 -73 -188 -124 -320 -124 -94 0 -93 -1 -93 96 0 48 -6 99
-13 117 -13 31 -12 36 40 127 29 52 79 143 111 202 45 86 59 105 70 96 7 -7
48 -57 89 -112z m-2607 -770 c-29 -49 -35 -45 -10 5 12 23 24 38 27 35 3 -2
-5 -21 -17 -40z m757 -1028 c-10 -38 -45 -305 -57 -428 -6 -63 -19 -209 -30
-325 -39 -411 -63 -572 -90 -599 -5 -5 -18 -2 -32 7 -111 78 -169 123 -249
194 -52 45 -106 92 -121 105 -26 22 -27 25 -17 68 10 39 8 55 -14 119 -20 59
-23 79 -15 95 28 53 129 187 193 256 147 160 337 392 400 488 31 47 40 53 32
20z"/>
</g>
</svg>
