<?xml version="1.0" encoding="UTF-8"?>
<svg xmlns="http://www.w3.org/2000/svg" xmlns:xlink="http://www.w3.org/1999/xlink" width="17px" height="28px" viewBox="0 0 17 28" version="1.1">
<g id="surface1">
<path style=" stroke:none;fill-rule:nonzero;fill:rgb(12.941176%,58.823529%,95.294118%);fill-opacity:1;" d="M 3.734375 0.0117188 C 3.40625 0.0976562 3.023438 0.273438 2.921875 0.386719 C 2.828125 0.488281 2.589844 0.972656 2.5 1.238281 C 2.4375 1.421875 2.429688 1.464844 2.429688 1.71875 C 2.429688 2.136719 2.460938 2.359375 2.542969 2.511719 C 2.578125 2.585938 2.617188 2.703125 2.632812 2.800781 C 2.664062 3.019531 2.679688 3.058594 2.820312 3.304688 C 2.925781 3.484375 3.1875 4.050781 3.1875 4.09375 C 3.1875 4.105469 3.136719 4.132812 3.070312 4.164062 C 2.90625 4.238281 2.671875 4.378906 2.476562 4.527344 C 2.382812 4.597656 2.242188 4.695312 2.160156 4.746094 C 1.945312 4.878906 1.804688 5.042969 1.65625 5.335938 L 1.527344 5.585938 L 1.527344 6.136719 L 1.660156 6.441406 L 1.796875 6.75 L 1.792969 7.449219 C 1.792969 8.023438 1.785156 8.1875 1.753906 8.355469 C 1.679688 8.746094 1.675781 8.847656 1.671875 10.226562 C 1.671875 11.84375 1.648438 12.535156 1.59375 12.710938 C 1.535156 12.902344 1.34375 13.355469 1.214844 13.625 L 1.089844 13.871094 L 1.148438 13.9375 C 1.246094 14.050781 1.269531 14.121094 1.316406 14.429688 C 1.34375 14.597656 1.378906 14.753906 1.394531 14.78125 C 1.441406 14.851562 1.679688 15 1.789062 15.03125 C 1.835938 15.042969 1.9375 15.050781 2.011719 15.046875 C 2.144531 15.039062 2.152344 15.035156 2.160156 14.980469 C 2.167969 14.914062 2.097656 14.851562 2.011719 14.851562 C 1.949219 14.851562 1.84375 14.800781 1.75 14.726562 L 1.683594 14.671875 L 2.035156 14.683594 L 2.382812 14.695312 L 2.4375 14.632812 C 2.46875 14.601562 2.527344 14.5625 2.574219 14.546875 C 2.710938 14.503906 2.695312 14.390625 2.542969 14.328125 C 2.46875 14.296875 2.429688 14.226562 2.429688 14.109375 C 2.429688 14.027344 2.433594 14.023438 2.558594 13.960938 C 2.632812 13.929688 2.6875 13.882812 2.695312 13.863281 C 2.699219 13.839844 2.667969 13.792969 2.621094 13.75 C 2.542969 13.679688 2.542969 13.679688 2.585938 13.640625 C 2.648438 13.585938 2.640625 13.550781 2.566406 13.5 C 2.511719 13.460938 2.5 13.4375 2.488281 13.285156 C 2.480469 13.191406 2.457031 13.042969 2.4375 12.953125 C 2.40625 12.820312 2.40625 12.707031 2.417969 12.390625 C 2.4375 11.8125 2.5 11.4375 2.640625 11.023438 C 2.777344 10.648438 2.953125 9.871094 3.078125 9.125 C 3.152344 8.703125 3.203125 8.507812 3.25 8.492188 C 3.28125 8.484375 3.40625 8.722656 3.496094 8.96875 C 3.574219 9.191406 3.621094 9.40625 3.667969 9.777344 C 3.6875 9.929688 3.71875 10.109375 3.734375 10.183594 C 3.785156 10.394531 3.808594 10.632812 3.835938 11.234375 C 3.886719 12.445312 3.898438 12.703125 3.925781 12.816406 C 3.953125 12.921875 3.953125 12.933594 3.910156 12.957031 C 3.890625 12.96875 3.835938 13.011719 3.796875 13.050781 C 3.730469 13.113281 3.722656 13.132812 3.722656 13.25 C 3.722656 13.378906 3.722656 13.386719 3.632812 13.453125 C 3.523438 13.539062 3.519531 13.582031 3.625 13.78125 L 3.703125 13.933594 L 3.582031 14.105469 C 3.390625 14.375 3.363281 14.484375 3.421875 14.757812 C 3.433594 14.808594 3.394531 14.941406 3.261719 15.335938 C 3.160156 15.617188 3.046875 15.929688 3.011719 16.035156 C 2.921875 16.257812 2.917969 16.394531 2.984375 16.625 C 3.046875 16.839844 3.066406 17 3.121094 17.679688 C 3.144531 17.988281 3.183594 18.296875 3.199219 18.363281 C 3.21875 18.429688 3.277344 18.5625 3.332031 18.65625 C 3.386719 18.746094 3.558594 19.082031 3.710938 19.398438 C 3.863281 19.714844 4.023438 20.03125 4.066406 20.109375 C 4.214844 20.375 5.175781 21.320312 5.753906 21.773438 C 6.007812 21.972656 6.0625 22.03125 6.1875 22.257812 C 6.234375 22.339844 6.328125 22.503906 6.394531 22.613281 L 6.519531 22.820312 L 6.480469 22.894531 C 6.4375 22.984375 6.433594 23.027344 6.472656 23.1875 C 6.496094 23.308594 6.496094 23.3125 6.433594 23.390625 C 6.375 23.46875 6.371094 23.472656 6.417969 23.472656 C 6.445312 23.472656 6.464844 23.484375 6.464844 23.5 C 6.464844 23.519531 6.503906 23.574219 6.546875 23.632812 C 6.613281 23.710938 6.628906 23.757812 6.644531 23.882812 C 6.664062 24.023438 6.746094 24.296875 6.796875 24.382812 C 6.816406 24.414062 6.820312 24.386719 6.824219 24.277344 C 6.824219 24.195312 6.832031 24.125 6.84375 24.121094 C 6.871094 24.101562 6.960938 24.375 7.078125 24.84375 C 7.132812 25.058594 7.207031 25.3125 7.246094 25.40625 C 7.4375 25.855469 7.722656 26.101562 7.957031 26.027344 C 8.078125 25.992188 8.210938 25.910156 8.355469 25.789062 C 8.425781 25.726562 8.511719 25.671875 8.550781 25.664062 C 8.609375 25.652344 8.613281 25.648438 8.597656 25.558594 C 8.582031 25.445312 8.617188 25.335938 8.675781 25.320312 C 8.699219 25.3125 8.730469 25.28125 8.746094 25.253906 C 8.761719 25.214844 8.757812 25.1875 8.722656 25.128906 C 8.695312 25.085938 8.667969 24.988281 8.652344 24.882812 C 8.628906 24.683594 8.617188 24.652344 8.433594 24.214844 C 8.285156 23.863281 8.21875 23.636719 8.191406 23.410156 C 8.179688 23.265625 8.179688 23.253906 8.230469 23.230469 C 8.257812 23.214844 8.289062 23.191406 8.300781 23.179688 C 8.332031 23.132812 8.316406 23.03125 8.273438 22.976562 C 8.203125 22.886719 8.210938 22.753906 8.292969 22.671875 C 8.332031 22.636719 8.363281 22.601562 8.363281 22.59375 C 8.363281 22.582031 8.332031 22.535156 8.292969 22.484375 C 8.257812 22.433594 8.21875 22.355469 8.203125 22.304688 C 8.136719 22.0625 7.898438 21.871094 7.417969 21.679688 C 7.296875 21.628906 7.230469 21.585938 7.191406 21.539062 C 7.140625 21.46875 6.65625 20.570312 6.378906 20.019531 C 6.292969 19.847656 6.175781 19.578125 6.121094 19.417969 C 6.066406 19.253906 5.976562 19.03125 5.921875 18.917969 C 5.820312 18.726562 5.769531 18.640625 5.476562 18.191406 C 5.40625 18.085938 5.355469 17.992188 5.363281 17.984375 C 5.367188 17.980469 5.40625 18.003906 5.449219 18.039062 C 5.535156 18.117188 5.722656 18.207031 5.867188 18.246094 C 6.003906 18.28125 6.105469 18.257812 6.207031 18.167969 L 6.296875 18.089844 L 6.246094 17.886719 C 6.1875 17.636719 6.183594 17.558594 6.246094 17.34375 C 6.296875 17.160156 6.304688 17.148438 6.5 17.011719 C 6.574219 16.957031 6.761719 16.800781 6.921875 16.660156 C 7.210938 16.402344 7.277344 16.363281 7.363281 16.398438 C 7.433594 16.429688 7.945312 16.914062 8.363281 17.339844 C 8.550781 17.535156 8.828125 17.800781 8.980469 17.933594 C 9.28125 18.203125 9.34375 18.269531 9.53125 18.515625 C 9.6875 18.730469 9.800781 18.851562 9.882812 18.890625 C 9.914062 18.910156 9.988281 18.996094 10.050781 19.097656 C 10.109375 19.195312 10.289062 19.445312 10.457031 19.648438 C 10.789062 20.070312 10.90625 20.234375 11.105469 20.566406 C 11.183594 20.6875 11.292969 20.851562 11.351562 20.929688 C 11.414062 21.003906 11.496094 21.117188 11.535156 21.179688 C 11.625 21.316406 11.703125 21.386719 11.925781 21.542969 C 12.1875 21.734375 12.308594 21.882812 12.429688 22.164062 C 12.585938 22.515625 12.675781 22.664062 13.28125 23.574219 C 14.015625 24.671875 14.050781 24.742188 14.125 25.210938 C 14.175781 25.535156 14.25 25.71875 14.394531 25.917969 C 14.421875 25.960938 14.460938 26.046875 14.484375 26.113281 C 14.503906 26.179688 14.636719 26.460938 14.78125 26.738281 C 14.957031 27.070312 15.054688 27.292969 15.074219 27.375 C 15.136719 27.660156 15.132812 27.660156 16.105469 27.65625 C 16.996094 27.65625 16.980469 27.65625 16.980469 27.472656 C 16.980469 27.320312 16.875 27.105469 16.523438 26.527344 C 16.386719 26.300781 16.277344 26.109375 16.28125 26.105469 C 16.285156 26.101562 16.328125 26.109375 16.375 26.125 C 16.4375 26.144531 16.460938 26.144531 16.484375 26.125 C 16.519531 26.085938 16.46875 26.035156 16.363281 26.003906 C 16.285156 25.984375 16.121094 25.835938 16.121094 25.789062 C 16.121094 25.78125 16.070312 25.746094 16.011719 25.707031 C 15.871094 25.617188 15.667969 25.382812 15.566406 25.199219 C 15.523438 25.121094 15.464844 25.019531 15.429688 24.96875 C 15.257812 24.722656 15.128906 24.363281 15.097656 24.039062 C 15.054688 23.628906 14.851562 22.945312 14.570312 22.242188 C 14.390625 21.796875 14.28125 21.582031 14.042969 21.207031 C 13.925781 21.027344 13.796875 20.816406 13.757812 20.738281 C 13.707031 20.644531 13.609375 20.519531 13.476562 20.386719 C 13.074219 19.984375 13.03125 19.933594 12.890625 19.699219 C 12.492188 19.042969 12.269531 18.46875 12.382812 18.382812 C 12.394531 18.367188 12.460938 18.351562 12.519531 18.347656 C 12.675781 18.328125 12.953125 18.238281 13.195312 18.121094 C 13.371094 18.039062 13.402344 18.015625 13.402344 17.972656 C 13.402344 17.886719 13.246094 17.554688 13.09375 17.304688 C 13.015625 17.179688 12.851562 16.886719 12.730469 16.65625 C 12.496094 16.210938 12.460938 16.144531 12.226562 15.78125 C 12.140625 15.648438 12.035156 15.484375 11.996094 15.410156 C 11.886719 15.214844 11.765625 15.101562 11.535156 14.972656 L 11.335938 14.855469 L 11.320312 14.625 C 11.304688 14.355469 11.273438 14.285156 11.148438 14.207031 C 11.035156 14.132812 10.914062 14.117188 10.777344 14.160156 C 10.722656 14.179688 10.671875 14.195312 10.667969 14.191406 C 10.65625 14.175781 10.589844 13.722656 10.570312 13.507812 C 10.507812 12.90625 10.273438 12.078125 9.957031 11.378906 C 9.808594 11.042969 9.507812 10.25 9.390625 9.875 C 9.296875 9.578125 9.242188 9.332031 9.199219 9.046875 C 9.179688 8.910156 9.136719 8.691406 9.105469 8.554688 C 8.996094 8.050781 8.917969 7.664062 8.886719 7.484375 C 8.851562 7.265625 8.863281 7.257812 9.023438 7.335938 C 9.164062 7.40625 9.484375 7.507812 9.710938 7.558594 C 9.914062 7.601562 10.164062 7.664062 10.433594 7.734375 C 10.769531 7.824219 11.085938 7.792969 11.203125 7.652344 C 11.25 7.597656 11.261719 7.566406 11.261719 7.441406 C 11.261719 7.230469 11.199219 6.917969 11.144531 6.828125 C 11.054688 6.679688 10.851562 6.421875 10.726562 6.289062 C 10.65625 6.21875 10.539062 6.074219 10.472656 5.96875 C 10.320312 5.746094 10.128906 5.5625 9.765625 5.3125 C 9.449219 5.089844 9.417969 5.0625 9.347656 4.957031 C 9.273438 4.839844 8.921875 4.488281 8.710938 4.3125 C 8.617188 4.234375 8.496094 4.117188 8.445312 4.050781 C 8.316406 3.875 8.097656 3.675781 7.992188 3.628906 C 7.945312 3.609375 7.808594 3.574219 7.691406 3.550781 C 7.578125 3.53125 7.402344 3.488281 7.308594 3.453125 C 7.152344 3.398438 7.101562 3.390625 6.882812 3.390625 C 6.746094 3.390625 6.527344 3.402344 6.398438 3.414062 C 6.195312 3.4375 6.152344 3.433594 6.078125 3.402344 C 6.03125 3.382812 5.960938 3.367188 5.921875 3.367188 C 5.710938 3.367188 5.542969 2.847656 5.648438 2.542969 C 5.738281 2.300781 5.753906 1.671875 5.675781 1.335938 C 5.617188 1.0625 5.402344 0.664062 5.214844 0.484375 C 5.027344 0.300781 4.714844 0.121094 4.457031 0.0507812 C 4.335938 0.0195312 3.820312 -0.0078125 3.734375 0.0117188 Z M 3.734375 0.0117188 "/>
<path style=" stroke:none;fill-rule:nonzero;fill:rgb(12.941176%,58.823529%,95.294118%);fill-opacity:1;" d="M 1.582031 24.039062 C 1.347656 24.101562 1.113281 24.199219 0.929688 24.320312 C 0.472656 24.617188 0.0976562 25.183594 0.0195312 25.679688 C -0.0117188 25.894531 0.00390625 26.28125 0.0546875 26.484375 C 0.226562 27.179688 0.832031 27.773438 1.5625 27.957031 C 1.71875 27.996094 2.304688 27.996094 2.484375 27.957031 C 2.800781 27.890625 3.167969 27.699219 3.417969 27.476562 C 3.84375 27.09375 4.109375 26.445312 4.074219 25.875 C 4.058594 25.636719 4.019531 25.476562 3.914062 25.238281 C 3.789062 24.953125 3.703125 24.832031 3.445312 24.574219 C 3.226562 24.359375 3.175781 24.320312 2.988281 24.230469 C 2.683594 24.082031 2.398438 24.015625 2.039062 24.003906 C 1.804688 24 1.71875 24.003906 1.582031 24.039062 Z M 1.582031 24.039062 "/>
</g>
</svg>
